<svg width="50" height="50" viewBox="0 0 50 50" fill="none" xmlns="http://www.w3.org/2000/svg">
<path d="M12.5 21.875C19.4085 21.875 25 16.9824 25 10.9375C25 4.89258 19.4085 0 12.5 0C5.59152 0 0 4.89258 0 10.9375C0 16.9824 5.59152 21.875 12.5 21.875ZM12.5 6.25C15.4576 6.25 17.8571 8.34961 17.8571 10.9375C17.8571 13.5254 15.4576 15.625 12.5 15.625C9.54241 15.625 7.14286 13.5254 7.14286 10.9375C7.14286 8.34961 9.54241 6.25 12.5 6.25ZM37.5 28.125C30.5915 28.125 25 33.0176 25 39.0625C25 45.1074 30.5915 50 37.5 50C44.4085 50 50 45.1074 50 39.0625C50 33.0176 44.4085 28.125 37.5 28.125ZM37.5 43.75C34.5424 43.75 32.1429 41.6504 32.1429 39.0625C32.1429 36.4746 34.5424 34.375 37.5 34.375C40.4576 34.375 42.8571 36.4746 42.8571 39.0625C42.8571 41.6504 40.4576 43.75 37.5 43.75ZM43.7835 0.0195312L47.3103 0.00976562C49.4754 0 50.7589 2.13867 49.5089 3.70117L8.63839 48.9844C8.39196 49.2919 8.06452 49.543 7.68376 49.7163C7.303 49.8897 6.88013 49.9803 6.45089 49.9805L2.72321 49.9902C0.546875 49.9902 -0.725446 47.8516 0.524554 46.2988L41.596 1.01562C42.0982 0.390625 42.9129 0.0195312 43.7835 0.0195312Z" fill="#00A86B"/>
</svg>
