<svg width="50" height="50" viewBox="0 0 50 50" fill="none" xmlns="http://www.w3.org/2000/svg">
<path d="M40.625 12.5V3.125C40.625 1.39941 39.2256 0 37.5 0H3.125C1.39941 0 0 1.39941 0 3.125V12.5C0 14.2256 1.39941 15.625 3.125 15.625H37.5C39.2256 15.625 40.625 14.2256 40.625 12.5ZM43.75 6.25V18.75C43.75 20.4756 42.3506 21.875 40.625 21.875H25C21.5479 21.875 18.75 24.6729 18.75 28.125V31.25C17.0244 31.25 15.625 32.6494 15.625 34.375V46.875C15.625 48.6006 17.0244 50 18.75 50H25C26.7256 50 28.125 48.6006 28.125 46.875V34.375C28.125 32.6494 26.7256 31.25 25 31.25V28.125H40.625C45.8027 28.125 50 23.9277 50 18.75V12.5C50 9.04785 47.2021 6.25 43.75 6.25Z" fill="#00A86B"/>
</svg>
