<svg width="75" height="50" viewBox="0 0 75 50" fill="none" xmlns="http://www.w3.org/2000/svg">
<path d="M59.1495 1.5H59.1493C52.1418 1.49946 45.1012 3.18896 37.8509 4.93661L37.76 4.95853C30.6056 6.68309 23.2442 8.45759 15.8494 8.45759C12.1068 8.45759 8.34047 8.00499 4.55857 6.86232L59.1495 1.5ZM59.1495 1.5C63.5397 1.5 67.895 2.16613 72.2346 3.89967C72.9996 4.20529 73.4993 4.97085 73.5 5.797V41.2031C73.5 42.3067 72.5472 43.2533 71.2208 43.2533C70.9686 43.2533 70.7069 43.2167 70.4414 43.1366C66.6595 41.9939 62.8932 41.5413 59.1506 41.5413C51.7553 41.5413 44.3929 43.3161 37.2378 45.0409L37.1485 45.0624C29.8979 46.8102 22.857 48.5 15.8494 48.5C11.4592 48.5 7.10395 47.8339 2.76452 46.0993L2.76327 46.0988M59.1495 1.5L2.76327 46.0988M2.76327 46.0988C1.99944 45.7943 1.5 45.0287 1.5 44.2042V8.79576C1.5 7.69219 2.45285 6.74554 3.77924 6.74554C4.03128 6.74554 4.29288 6.78214 4.55825 6.86223L2.76327 46.0988ZM5.973 9.72622L4.12491 9.28531V11.1853V17.9342V19.4342H5.62491C9.93681 19.4342 13.6017 16.4942 14.4428 12.4903L14.8002 10.7887L13.0646 10.6846C10.5821 10.5357 8.21535 10.2612 5.973 9.72622ZM4.12491 42.9933V44.0615L5.13441 44.4108C7.62102 45.2713 10.216 45.7978 12.9764 46.009L14.669 46.1385L14.5892 44.4429C14.3701 39.788 10.4072 36.1607 5.62491 36.1607H4.12491V37.6607V42.9933ZM69.0257 40.2738L70.8739 40.7148V38.8147V32.3728V30.6808L69.1941 30.8836C65.465 31.3338 62.3898 33.9685 61.5486 37.5278L61.1472 39.2263L62.8867 39.3678C65.0254 39.5419 67.0743 39.8081 69.0257 40.2738ZM69.1944 13.9524L70.8739 14.1549V12.4632V7.0067V5.93804L69.8639 5.58897C67.6649 4.82903 65.3778 4.35445 62.9916 4.10207L61.2807 3.92111L61.3345 5.6407C61.471 9.99714 64.901 13.4348 69.1944 13.9524ZM26.6246 25C26.6246 31.5501 31.3105 37.2143 37.4994 37.2143C43.6856 37.2143 48.3743 31.5528 48.3743 25C48.3743 18.4486 43.687 12.7857 37.4994 12.7857C31.3119 12.7857 26.6246 18.4486 26.6246 25Z" fill="#00A86B" stroke="#00A86B" stroke-width="3"/>
</svg>
