<svg width="50" height="50" viewBox="0 0 50 50" fill="none" xmlns="http://www.w3.org/2000/svg">
<path d="M6.03223 41.183L7.74121 38.9342C8.08133 38.5007 8.2591 37.9321 8.23633 37.3504V36.981C8.23633 36.1607 7.86133 35.7143 7.12891 35.7143H1.5625C1.3553 35.7143 1.15659 35.8084 1.01007 35.9758C0.86356 36.1432 0.78125 36.3703 0.78125 36.6071V38.3929C0.78125 38.6297 0.86356 38.8568 1.01007 39.0242C1.15659 39.1916 1.3553 39.2857 1.5625 39.2857H3.79199C3.41314 39.7219 3.05457 40.1805 2.71777 40.6596L2.16992 41.4408C1.7793 42.0067 1.65723 42.5714 1.89648 43.1016L1.99902 43.317C2.29199 43.9598 2.61328 44.1964 3.19531 44.1964H3.65723C4.66602 44.1964 5.21387 44.4688 5.21387 45.2109C5.21387 45.7377 4.80371 46.1283 3.81152 46.1283C3.2931 46.1237 2.78027 46.0055 2.30078 45.7801C1.66699 45.3471 1.1543 45.3895 0.777344 46.1283L0.231445 47.1674C-0.131836 47.8516 -0.0800781 48.4754 0.488281 48.9464C1.24121 49.4699 2.47852 50 4.10156 50C7.4375 50 8.83789 47.4609 8.83789 45.0759C8.83496 43.471 7.94727 41.7545 6.03223 41.183ZM48.4375 21.4286H17.1875C16.7731 21.4286 16.3757 21.6167 16.0826 21.9516C15.7896 22.2865 15.625 22.7407 15.625 23.2143V26.7857C15.625 27.2593 15.7896 27.7135 16.0826 28.0484C16.3757 28.3833 16.7731 28.5714 17.1875 28.5714H48.4375C48.8519 28.5714 49.2493 28.3833 49.5424 28.0484C49.8354 27.7135 50 27.2593 50 26.7857V23.2143C50 22.7407 49.8354 22.2865 49.5424 21.9516C49.2493 21.6167 48.8519 21.4286 48.4375 21.4286ZM48.4375 3.57143H17.1875C16.7731 3.57143 16.3757 3.75957 16.0826 4.09445C15.7896 4.42934 15.625 4.88354 15.625 5.35714V8.92857C15.625 9.40217 15.7896 9.85637 16.0826 10.1913C16.3757 10.5261 16.7731 10.7143 17.1875 10.7143H48.4375C48.8519 10.7143 49.2493 10.5261 49.5424 10.1913C49.8354 9.85637 50 9.40217 50 8.92857V5.35714C50 4.88354 49.8354 4.42934 49.5424 4.09445C49.2493 3.75957 48.8519 3.57143 48.4375 3.57143ZM48.4375 39.2857H17.1875C16.7731 39.2857 16.3757 39.4739 16.0826 39.8087C15.7896 40.1436 15.625 40.5978 15.625 41.0714V44.6429C15.625 45.1165 15.7896 45.5707 16.0826 45.9055C16.3757 46.2404 16.7731 46.4286 17.1875 46.4286H48.4375C48.8519 46.4286 49.2493 46.2404 49.5424 45.9055C49.8354 45.5707 50 45.1165 50 44.6429V41.0714C50 40.5978 49.8354 40.1436 49.5424 39.8087C49.2493 39.4739 48.8519 39.2857 48.4375 39.2857ZM1.5625 14.2857H7.8125C8.0197 14.2857 8.21841 14.1916 8.36493 14.0242C8.51144 13.8568 8.59375 13.6297 8.59375 13.3929V11.6071C8.59375 11.3703 8.51144 11.1432 8.36493 10.9758C8.21841 10.8084 8.0197 10.7143 7.8125 10.7143H6.25V0.892857C6.25 0.656057 6.16769 0.428955 6.02118 0.261512C5.87466 0.0940688 5.67595 0 5.46875 0H3.125C2.98019 0.000295364 2.83831 0.0465811 2.71518 0.13369C2.59205 0.220799 2.49254 0.345304 2.42773 0.493303L1.64648 2.27902C1.58693 2.41502 1.55877 2.56616 1.56466 2.71809C1.57055 2.87003 1.6103 3.01772 1.68014 3.14718C1.74998 3.27663 1.8476 3.38355 1.96373 3.4578C2.07987 3.53204 2.21068 3.57116 2.34375 3.57143H3.125V10.7143H1.5625C1.3553 10.7143 1.15659 10.8084 1.01007 10.9758C0.86356 11.1432 0.78125 11.3703 0.78125 11.6071V13.3929C0.78125 13.6297 0.86356 13.8568 1.01007 14.0242C1.15659 14.1916 1.3553 14.2857 1.5625 14.2857ZM1.18066 32.1429H7.8125C8.0197 32.1429 8.21841 32.0488 8.36493 31.8813C8.51144 31.7139 8.59375 31.4868 8.59375 31.25V29.4643C8.59375 29.2275 8.51144 29.0004 8.36493 28.8329C8.21841 28.6655 8.0197 28.5714 7.8125 28.5714H4.03516C4.35645 27.423 8.75586 26.4866 8.75586 22.2723C8.75586 19.029 6.31445 17.8571 4.41309 17.8571C2.32715 17.8571 1.1123 18.9732 0.461914 19.9498C0.0351562 20.5737 0.168945 21.1596 0.735352 21.6652L1.57324 22.433C2.12109 22.942 2.64746 22.7087 3.14746 22.1607C3.39409 21.8845 3.72601 21.7306 4.07129 21.7321C4.39648 21.7321 4.97754 21.9062 4.97754 22.7087C4.98047 24.1283 0 25.1462 0 30.423V30.8694C0 31.6964 0.496094 32.1429 1.18066 32.1429Z" fill="#00A86B"/>
</svg>
